<svg xmlns="http://www.w3.org/2000/svg" xmlns:xlink="http://www.w3.org/1999/xlink" viewBox="0 0 354 69">
  <defs>
    <style>
      .cls-1 {
        fill: #fffefe;
      }

      .cls-2 {
        filter: url(#facebook_1_);
      }

      .cls-3 {
        filter: url(#instagram_2_);
      }

      .cls-4 {
        filter: url(#twitter_1_);
      }
    </style>
    <filter id="twitter_1_" x="0" y="1" width="68" height="68" filterUnits="userSpaceOnUse">
      <feOffset dy="3" input="SourceAlpha"/>
      <feGaussianBlur stdDeviation="3" result="blur"/>
      <feFlood flood-opacity="0.612"/>
      <feComposite operator="in" in2="blur"/>
      <feComposite in="SourceGraphic"/>
    </filter>
    <filter id="instagram_2_" x="286" y="1" width="68" height="68" filterUnits="userSpaceOnUse">
      <feOffset dy="3" input="SourceAlpha"/>
      <feGaussianBlur stdDeviation="3" result="blur-2"/>
      <feFlood flood-opacity="0.612"/>
      <feComposite operator="in" in2="blur-2"/>
      <feComposite in="SourceGraphic"/>
    </filter>
    <filter id="facebook_1_" x="143" y="0" width="68" height="68" filterUnits="userSpaceOnUse">
      <feOffset dy="3" input="SourceAlpha"/>
      <feGaussianBlur stdDeviation="3" result="blur-3"/>
      <feFlood flood-opacity="0.612"/>
      <feComposite operator="in" in2="blur-3"/>
      <feComposite in="SourceGraphic"/>
    </filter>
  </defs>
  <g id="Group_45" data-name="Group 45" transform="translate(-1398 -2270)">
    <g class="cls-4" transform="matrix(1, 0, 0, 1, 1398, 2270)">
      <path id="twitter_1_2" data-name="twitter (1)" class="cls-1" d="M49.9,8.2a17.9,17.9,0,0,1-5.885,1.986,12.593,12.593,0,0,0,4.506-6.98,18.942,18.942,0,0,1-6.514,3.035,9.445,9.445,0,0,0-7.481-4c-5.66,0-10.25,5.647-10.25,12.6a15.759,15.759,0,0,0,.265,2.881C16.022,17.235,8.47,12.2,3.417,4.591a14.6,14.6,0,0,0-1.387,6.344,13.579,13.579,0,0,0,4.558,10.5,8.815,8.815,0,0,1-4.641-1.579v.156c0,6.113,3.527,11.211,8.22,12.372a8.59,8.59,0,0,1-2.7.438,8.469,8.469,0,0,1-1.908-.22c1.315,5.006,5.094,8.656,9.591,8.758a18.28,18.28,0,0,1-12.712,5.4A17.734,17.734,0,0,1,0,46.584a25.358,25.358,0,0,0,15.743,5.662c18.862,0,29.163-19.214,29.163-35.849,0-.536,0-1.077-.031-1.615A23.943,23.943,0,0,0,50,8.252L49.9,8.2Z" transform="translate(9 4.75)"/>
    </g>
    <g class="cls-3" transform="matrix(1, 0, 0, 1, 1398, 2270)">
      <path id="instagram_2_2" data-name="instagram (2)" class="cls-1" d="M25,0c-6.792,0-7.64.031-10.306.15A18.434,18.434,0,0,0,8.625,1.312,12.243,12.243,0,0,0,4.2,4.2,12.2,12.2,0,0,0,1.312,8.625,18.381,18.381,0,0,0,.15,14.694C.025,17.36,0,18.208,0,25s.031,7.64.15,10.306a18.446,18.446,0,0,0,1.162,6.069A12.26,12.26,0,0,0,4.2,45.8a12.225,12.225,0,0,0,4.429,2.883,18.457,18.457,0,0,0,6.069,1.163C17.36,49.975,18.208,50,25,50s7.64-.031,10.306-.15a18.5,18.5,0,0,0,6.069-1.163,12.776,12.776,0,0,0,7.313-7.312,18.446,18.446,0,0,0,1.163-6.069C49.975,32.64,50,31.792,50,25s-.031-7.64-.15-10.306a18.489,18.489,0,0,0-1.163-6.069A12.27,12.27,0,0,0,45.8,4.2a12.181,12.181,0,0,0-4.429-2.883A18.392,18.392,0,0,0,35.306.15C32.64.025,31.792,0,25,0Zm0,4.5c6.673,0,7.469.033,10.1.148a13.774,13.774,0,0,1,4.64.865,8.227,8.227,0,0,1,4.746,4.744,13.8,13.8,0,0,1,.86,4.64c.119,2.637.146,3.429.146,10.1s-.031,7.469-.154,10.1a14.069,14.069,0,0,1-.877,4.64,7.938,7.938,0,0,1-1.873,2.879,7.8,7.8,0,0,1-2.875,1.867,13.9,13.9,0,0,1-4.656.86c-2.654.119-3.435.146-10.123.146s-7.471-.031-10.123-.154a14.176,14.176,0,0,1-4.658-.877,7.742,7.742,0,0,1-2.873-1.873,7.591,7.591,0,0,1-1.875-2.875,14.188,14.188,0,0,1-.875-4.656c-.094-2.625-.127-3.435-.127-10.092s.033-7.471.127-10.127a14.172,14.172,0,0,1,.875-4.654A7.411,7.411,0,0,1,7.283,7.31,7.394,7.394,0,0,1,10.156,5.44a13.837,13.837,0,0,1,4.627-.877c2.656-.094,3.437-.125,10.123-.125L25,4.5Zm0,7.663A12.838,12.838,0,1,0,37.838,25,12.837,12.837,0,0,0,25,12.163Zm0,21.171A8.333,8.333,0,1,1,33.333,25,8.331,8.331,0,0,1,25,33.333ZM41.346,11.656a3,3,0,1,1-3-3A3,3,0,0,1,41.346,11.656Z" transform="translate(295 7)"/>
    </g>
    <g class="cls-2" transform="matrix(1, 0, 0, 1, 1398, 2270)">
      <path id="facebook_1_2" data-name="facebook (1)" class="cls-1" d="M47.242,0H2.758A2.759,2.759,0,0,0,0,2.758V47.242A2.758,2.758,0,0,0,2.758,50H26.7V30.637H20.185V23.094H26.7V17.521c0-6.456,3.946-9.969,9.706-9.969a53.9,53.9,0,0,1,5.825.294V14.6h-4c-3.125,0-3.733,1.5-3.733,3.69V23.1h7.467L41,30.663H34.5V50H47.24A2.757,2.757,0,0,0,50,47.242V2.758A2.758,2.758,0,0,0,47.242,0" transform="translate(152 6)"/>
    </g>
  </g>
</svg>
